#Comment line ignore any data following # character 
#Hierarchical Translation and Rotation (.htr) file 
[Header]	
#Header keywords are followed by a single value 
FileType HTR		#Single word string
DataType HTRS		#Translation followed by rotation and scale data
FileVersion 1		#integer
NumSegments 84		#integer
NumFrames 2		#integer
DataFrameRate 30		#integer, data frame rate in this file
EulerRotationOrder ZYX
CalibrationUnits mm
RotationUnits Degrees
GlobalAxisofGravity Y
BoneLengthAxis Y
ScaleFactor 1.00
[SegmentNames&Hierarchy]
#CHILD	PARENT
MASTER GLOBAL
root MASTER
chest root
L_mid_tent01 root
R_mid_tent01 root
spine01 root
Bip01_Neck chest
L_humerus chest
R_humerus chest
weapon_bone chest
Bip01_Head Bip01_Neck
eye_left_bone Bip01_Head
eye_right_bone Bip01_Head
L_forearm L_humerus
L_front_hand L_forearm
L_weapon_bone L_forearm
L_front_hand01_01 L_front_hand
L_front_hand02_01 L_front_hand
L_front_hand03_01 L_front_hand
L_front_hand01_02 L_front_hand01_01
L_front_hand02_02 L_front_hand02_01
L_front_hand03_02 L_front_hand03_01
R_forearm R_humerus
R_front_hand R_forearm
R_weapon_bone R_forearm
R_front_hand01_01 R_front_hand
R_front_hand02_01 R_front_hand
R_front_hand03_01 R_front_hand
R_front_hand01_02 R_front_hand01_01
R_front_hand02_02 R_front_hand02_01
R_front_hand03_02 R_front_hand03_01
null_rope01_connect L_mid_tent01
Rope1_Seg01 null_rope01_connect
Rope1_Seg02 Rope1_Seg01
Rope1_Seg03 Rope1_Seg02
Rope1_Seg04 Rope1_Seg03
Rope1_Seg05 Rope1_Seg04
Rope1_Seg06 Rope1_Seg05
Rope1_Seg07 Rope1_Seg06
Rope1_Seg09 Rope1_Seg07
L_mid_hand01 Rope1_Seg09
L_mid_hand02 Rope1_Seg09
L_mid_hand03 Rope1_Seg09
null_rope02_connect R_mid_tent01
Rope2_Seg01 null_rope02_connect
Rope2_Seg02 Rope2_Seg01
Rope2_Seg03 Rope2_Seg02
Rope2_Seg04 Rope2_Seg03
Rope2_Seg05 Rope2_Seg04
Rope2_Seg06 Rope2_Seg05
Rope2_Seg07 Rope2_Seg06
Rope2_Seg09 Rope2_Seg07
R_mid_hand01 Rope2_Seg09
R_mid_hand02 Rope2_Seg09
R_mid_hand03 Rope2_Seg09
spine02 spine01
spine03 spine02
pelvis spine03
null_rope03_connect pelvis
null_rope04_connect pelvis
Rope3_Seg01 null_rope03_connect
Rope3_Seg02 Rope3_Seg01
Rope3_Seg03 Rope3_Seg02
Rope3_Seg04 Rope3_Seg03
Rope3_Seg05 Rope3_Seg04
Rope3_Seg06 Rope3_Seg05
Rope3_Seg07 Rope3_Seg06
Rope3_Seg08 Rope3_Seg07
Rope3_Seg09 Rope3_Seg08
R_rear_hand01 Rope3_Seg09
R_rear_hand02 Rope3_Seg09
R_rear_hand03 Rope3_Seg09
Rope4_Seg01 null_rope04_connect
Rope4_Seg02 Rope4_Seg01
Rope4_Seg03 Rope4_Seg02
Rope4_Seg04 Rope4_Seg03
Rope4_Seg05 Rope4_Seg04
Rope4_Seg06 Rope4_Seg05
Rope4_Seg07 Rope4_Seg06
Rope4_Seg08 Rope4_Seg07
Rope4_Seg09 Rope4_Seg08
L_rear_hand01 Rope4_Seg09
L_rear_hand02 Rope4_Seg09
L_rear_hand03 Rope4_Seg09
[BasePosition]
#SegmentName Tx, Ty, Tz, Rx, Ry, Rz, BoneLength
MASTER 0.000000 0.000000 0.000000 -90.000000 0.000000 0.000000 10.000000 
root 0.000000 0.000000 0.000000 0.000000 0.000000 0.000000 10.000000 
chest 0.000000 0.000000 0.000000 0.000000 0.000000 0.000000 10.000000 
L_mid_tent01 0.000000 0.000000 0.000000 0.000000 0.000000 0.000000 10.000000 
R_mid_tent01 0.000000 0.000000 0.000000 0.000000 0.000000 0.000000 10.000000 
spine01 0.000000 0.000000 0.000000 0.000000 0.000000 0.000000 10.000000 
Bip01_Neck 0.000000 0.000000 0.000000 0.000000 0.000000 0.000000 10.000000 
L_humerus 0.000000 0.000000 0.000000 0.000000 0.000000 0.000000 10.000000 
R_humerus 0.000000 0.000000 0.000000 0.000000 0.000000 0.000000 10.000000 
weapon_bone 0.000000 0.000000 0.000000 0.000000 0.000000 0.000000 10.000000 
Bip01_Head 0.000000 0.000000 0.000000 0.000000 0.000000 0.000000 10.000000 
eye_left_bone 0.000000 0.000000 0.000000 0.000000 0.000000 0.000000 10.000000 
eye_right_bone 0.000000 0.000000 0.000000 0.000000 0.000000 0.000000 10.000000 
L_forearm 0.000000 0.000000 0.000000 0.000000 0.000000 0.000000 10.000000 
L_front_hand 0.000000 0.000000 0.000000 0.000000 0.000000 0.000000 10.000000 
L_weapon_bone 0.000000 0.000000 0.000000 0.000000 0.000000 0.000000 10.000000 
L_front_hand01_01 0.000000 0.000000 0.000000 0.000000 0.000000 0.000000 10.000000 
L_front_hand02_01 0.000000 0.000000 0.000000 0.000000 0.000000 0.000000 10.000000 
L_front_hand03_01 0.000000 0.000000 0.000000 0.000000 0.000000 0.000000 10.000000 
L_front_hand01_02 0.000000 0.000000 0.000000 0.000000 0.000000 0.000000 10.000000 
L_front_hand02_02 0.000000 0.000000 0.000000 0.000000 0.000000 0.000000 10.000000 
L_front_hand03_02 0.000000 0.000000 0.000000 0.000000 0.000000 0.000000 10.000000 
R_forearm 0.000000 0.000000 0.000000 0.000000 0.000000 0.000000 10.000000 
R_front_hand 0.000000 0.000000 0.000000 0.000000 0.000000 0.000000 10.000000 
R_weapon_bone 0.000000 0.000000 0.000000 0.000000 0.000000 0.000000 10.000000 
R_front_hand01_01 0.000000 0.000000 0.000000 0.000000 0.000000 0.000000 10.000000 
R_front_hand02_01 0.000000 0.000000 0.000000 0.000000 0.000000 0.000000 10.000000 
R_front_hand03_01 0.000000 0.000000 0.000000 0.000000 0.000000 0.000000 10.000000 
R_front_hand01_02 0.000000 0.000000 0.000000 0.000000 0.000000 0.000000 10.000000 
R_front_hand02_02 0.000000 0.000000 0.000000 0.000000 0.000000 0.000000 10.000000 
R_front_hand03_02 0.000000 0.000000 0.000000 0.000000 0.000000 0.000000 10.000000 
null_rope01_connect 0.000000 0.000000 0.000000 0.000000 0.000000 0.000000 10.000000 
Rope1_Seg01 0.000000 0.000000 0.000000 0.000000 0.000000 0.000000 10.000000 
Rope1_Seg02 0.000000 0.000000 0.000000 0.000000 0.000000 0.000000 10.000000 
Rope1_Seg03 0.000000 0.000000 0.000000 0.000000 0.000000 0.000000 10.000000 
Rope1_Seg04 0.000000 0.000000 0.000000 0.000000 0.000000 0.000000 10.000000 
Rope1_Seg05 0.000000 0.000000 0.000000 0.000000 0.000000 0.000000 10.000000 
Rope1_Seg06 0.000000 0.000000 0.000000 0.000000 0.000000 0.000000 10.000000 
Rope1_Seg07 0.000000 0.000000 0.000000 0.000000 0.000000 0.000000 10.000000 
Rope1_Seg09 0.000000 0.000000 0.000000 0.000000 0.000000 0.000000 10.000000 
L_mid_hand01 0.000000 0.000000 0.000000 0.000000 0.000000 0.000000 10.000000 
L_mid_hand02 0.000000 0.000000 0.000000 0.000000 0.000000 0.000000 10.000000 
L_mid_hand03 0.000000 0.000000 0.000000 0.000000 0.000000 0.000000 10.000000 
null_rope02_connect 0.000000 0.000000 0.000000 0.000000 0.000000 0.000000 10.000000 
Rope2_Seg01 0.000000 0.000000 0.000000 0.000000 0.000000 0.000000 10.000000 
Rope2_Seg02 0.000000 0.000000 0.000000 0.000000 0.000000 0.000000 10.000000 
Rope2_Seg03 0.000000 0.000000 0.000000 0.000000 0.000000 0.000000 10.000000 
Rope2_Seg04 0.000000 0.000000 0.000000 0.000000 0.000000 0.000000 10.000000 
Rope2_Seg05 0.000000 0.000000 0.000000 0.000000 0.000000 0.000000 10.000000 
Rope2_Seg06 0.000000 0.000000 0.000000 0.000000 0.000000 0.000000 10.000000 
Rope2_Seg07 0.000000 0.000000 0.000000 0.000000 0.000000 0.000000 10.000000 
Rope2_Seg09 0.000000 0.000000 0.000000 0.000000 0.000000 0.000000 10.000000 
R_mid_hand01 0.000000 0.000000 0.000000 0.000000 0.000000 0.000000 10.000000 
R_mid_hand02 0.000000 0.000000 0.000000 0.000000 0.000000 0.000000 10.000000 
R_mid_hand03 0.000000 0.000000 0.000000 0.000000 0.000000 0.000000 10.000000 
spine02 0.000000 0.000000 0.000000 0.000000 0.000000 0.000000 10.000000 
spine03 0.000000 0.000000 0.000000 0.000000 0.000000 0.000000 10.000000 
pelvis 0.000000 0.000000 0.000000 0.000000 0.000000 0.000000 10.000000 
null_rope03_connect 0.000000 0.000000 0.000000 0.000000 0.000000 0.000000 10.000000 
null_rope04_connect 0.000000 0.000000 0.000000 0.000000 0.000000 0.000000 10.000000 
Rope3_Seg01 0.000000 0.000000 0.000000 0.000000 0.000000 0.000000 10.000000 
Rope3_Seg02 0.000000 0.000000 0.000000 0.000000 0.000000 0.000000 10.000000 
Rope3_Seg03 0.000000 0.000000 0.000000 0.000000 0.000000 0.000000 10.000000 
Rope3_Seg04 0.000000 0.000000 0.000000 0.000000 0.000000 0.000000 10.000000 
Rope3_Seg05 0.000000 0.000000 0.000000 0.000000 0.000000 0.000000 10.000000 
Rope3_Seg06 0.000000 0.000000 0.000000 0.000000 0.000000 0.000000 10.000000 
Rope3_Seg07 0.000000 0.000000 0.000000 0.000000 0.000000 0.000000 10.000000 
Rope3_Seg08 0.000000 0.000000 0.000000 0.000000 0.000000 0.000000 10.000000 
Rope3_Seg09 0.000000 0.000000 0.000000 0.000000 0.000000 0.000000 10.000000 
R_rear_hand01 0.000000 0.000000 0.000000 0.000000 0.000000 0.000000 10.000000 
R_rear_hand02 0.000000 0.000000 0.000000 0.000000 0.000000 0.000000 10.000000 
R_rear_hand03 0.000000 0.000000 0.000000 0.000000 0.000000 0.000000 10.000000 
Rope4_Seg01 0.000000 0.000000 0.000000 0.000000 0.000000 0.000000 10.000000 
Rope4_Seg02 0.000000 0.000000 0.000000 0.000000 0.000000 0.000000 10.000000 
Rope4_Seg03 0.000000 0.000000 0.000000 0.000000 0.000000 0.000000 10.000000 
Rope4_Seg04 0.000000 0.000000 0.000000 0.000000 0.000000 0.000000 10.000000 
Rope4_Seg05 0.000000 0.000000 0.000000 0.000000 0.000000 0.000000 10.000000 
Rope4_Seg06 0.000000 0.000000 0.000000 0.000000 0.000000 0.000000 10.000000 
Rope4_Seg07 0.000000 0.000000 0.000000 0.000000 0.000000 0.000000 10.000000 
Rope4_Seg08 0.000000 0.000000 0.000000 0.000000 0.000000 0.000000 10.000000 
Rope4_Seg09 0.000000 0.000000 0.000000 0.000000 0.000000 0.000000 10.000000 
L_rear_hand01 0.000000 0.000000 0.000000 0.000000 0.000000 0.000000 10.000000 
L_rear_hand02 0.000000 0.000000 0.000000 0.000000 0.000000 0.000000 10.000000 
L_rear_hand03 0.000000 0.000000 0.000000 0.000000 0.000000 0.000000 10.000000 
#Beginning of Data. Separated by tabs
#Fr	Tx	Ty	Tz	Rx	Ry	Rz	SF
[MASTER]
8 0.000000 0.000000 0.000000 0.001660 0.001660 0.001660 0.000000
9 0.000000 0.000000 0.000000 0.001660 0.001660 0.001660 0.000000
[root]
8 -33.264275 -39.895470 1490.892456 -79.242516 -16.383011 -104.580086 1491.797119
9 -35.658840 -45.553440 1496.974121 -79.547745 -17.480631 -104.117638 1498.091553
[chest]
8 -84.512650 -34.090519 0.000000 -2.696142 6.007435 147.475143 91.129311
9 -84.512650 -34.090519 0.000000 -2.946975 4.552284 146.794708 91.129311
[L_mid_tent01]
8 27.299135 22.179071 -249.918701 2.588525 17.968882 80.116241 252.381683
9 27.299137 22.179066 -249.918701 1.792589 21.006760 79.241516 252.381683
[R_mid_tent01]
8 23.228794 24.509907 226.238495 162.014343 -28.978407 83.916725 228.744751
9 23.228794 24.509907 226.238495 164.473099 -15.548856 78.322639 228.744751
[spine01]
8 -0.361383 -0.195265 0.000000 0.002062 0.001122 32.879829 0.410763
9 -0.361383 -0.195265 0.000000 0.002062 0.001122 32.879829 0.410763
[Bip01_Neck]
8 165.484543 71.581718 0.000119 176.643677 -1.657967 43.431911 180.302734
9 165.484543 71.581718 0.000119 176.643677 -1.657967 43.431911 180.302734
[L_humerus]
8 -13.983130 -135.272980 -120.471481 175.475998 54.307114 -67.538116 181.680161
9 -13.983130 -135.272980 -120.471481 171.479904 45.098480 -67.397751 181.680161
[R_humerus]
8 -13.983309 -135.273102 125.287651 173.738205 -51.120750 -76.483238 184.909012
9 -13.983309 -135.273102 125.287651 176.973434 -41.496357 -79.568649 184.909012
[weapon_bone]
8 235.964890 -300.705902 0.000000 0.000000 -89.951546 -128.212341 382.234833
9 235.964890 -300.705902 0.000000 0.000000 -89.951546 -128.212341 382.234833
[Bip01_Head]
8 213.444199 185.715347 11.776941 17.175629 2.881074 -43.899544 283.173645
9 213.444199 185.715347 11.776940 19.884516 2.902675 -43.897854 283.173645
[eye_left_bone]
8 -24.626970 125.451866 -64.772606 0.000000 -90.000000 -99.840431 143.318359
9 -24.626970 125.451866 -64.772606 0.000000 -90.000000 -99.840431 143.318359
[eye_right_bone]
8 -24.626970 125.451866 64.327362 0.000000 -89.965736 80.156380 143.117676
9 -24.626970 125.451866 64.327362 0.000000 -89.980217 80.156387 143.117676
[L_forearm]
8 322.776093 0.000000 -0.000119 0.000396 -0.002314 -109.419975 322.776093
9 322.776093 0.000000 -0.000119 0.000396 -0.002314 -109.419968 322.776093
[L_front_hand]
8 241.149185 -0.042021 -3.300071 -178.667953 -1.835447 -27.422350 241.171753
9 241.149185 -0.042021 -3.300071 -178.667953 -1.835447 -27.422350 241.171753
[L_weapon_bone]
8 156.183838 0.000000 0.000000 0.000014 0.000007 0.000001 156.183838
9 156.183838 0.000000 0.000000 0.000014 0.000007 0.000001 156.183838
[L_front_hand01_01]
8 86.095154 20.947098 -0.655860 -0.320921 -0.506953 70.185371 88.609184
9 86.095154 20.947098 -0.655860 -0.306535 -0.513312 68.646957 88.609184
[L_front_hand02_01]
8 86.935165 -11.437475 24.513514 146.961243 -57.333778 -52.657810 91.046425
9 86.935165 -11.437475 24.513514 145.004044 -56.473930 -50.323570 91.046425
[L_front_hand03_01]
8 86.637497 -14.123976 -20.424902 -146.985443 55.548409 -54.432819 90.126129
9 86.637497 -14.123976 -20.424902 -145.151367 54.687611 -52.198399 90.126129
[L_front_hand01_02]
8 71.020905 -0.000179 0.000030 0.000317 -0.002326 -105.513657 71.020905
9 71.020905 -0.000179 0.000030 0.000316 -0.002326 -105.490036 71.020905
[L_front_hand02_02]
8 71.020927 -0.000119 0.000060 0.000317 -0.002326 -105.513657 71.020927
9 71.020927 -0.000119 0.000060 0.000316 -0.002326 -105.490036 71.020927
[L_front_hand03_02]
8 71.020905 -0.000060 0.000060 0.000317 -0.002326 -105.513657 71.020905
9 71.020905 -0.000060 0.000060 0.000316 -0.002326 -105.490036 71.020905
[R_forearm]
8 322.776428 -0.000060 0.000030 0.202103 0.065158 -108.062805 322.776428
9 322.776428 -0.000060 0.000030 0.202103 0.065158 -108.062820 322.776428
[R_front_hand]
8 238.847015 -0.006795 2.210259 -2.635298 -10.645461 -26.312506 238.857239
9 238.847015 -0.006795 2.210259 -2.635298 -10.645461 -26.312506 238.857239
[R_weapon_bone]
8 155.664093 0.002503 -0.000030 0.003487 0.001180 -90.988930 155.664078
9 155.664093 0.002503 -0.000030 0.003487 0.001180 -90.988930 155.664078
[R_front_hand01_01]
8 87.624611 14.231146 22.918642 -147.670532 -57.619129 53.605923 91.683487
9 87.624611 14.231146 22.918642 -145.613235 -56.747219 51.157963 91.683487
[R_front_hand02_01]
8 89.356956 14.367283 -19.491137 148.052353 55.989693 55.954597 92.579636
9 89.356956 14.367283 -19.491137 146.110458 55.128284 53.601921 92.579636
[R_front_hand03_01]
8 87.286232 -22.307278 -0.143439 0.125269 -0.437058 -70.957245 90.091743
9 87.286232 -22.307278 -0.143439 0.113738 -0.439575 -69.369316 90.091743
[R_front_hand01_02]
8 71.020905 0.000060 0.000119 0.002323 -0.000334 106.381714 71.020905
9 71.020905 0.000060 0.000119 0.002323 -0.000334 106.381714 71.020905
[R_front_hand02_02]
8 71.020844 -0.000030 -0.000119 0.002323 -0.000334 106.381714 71.020836
9 71.020844 -0.000030 -0.000119 0.002323 -0.000334 106.381714 71.020836
[R_front_hand03_02]
8 71.020905 0.000000 0.000030 0.002323 -0.000334 106.381714 71.020905
9 71.020905 0.000000 0.000030 0.002323 -0.000334 106.381714 71.020905
[null_rope01_connect]
8 328.732483 0.000000 -0.000238 -102.363411 -67.726173 127.899406 328.732483
9 328.732483 0.000000 -0.000238 -109.448410 -66.278313 136.530258 328.732483
[Rope1_Seg01]
8 -0.000034 0.000029 0.000117 -82.032463 73.179665 -77.509865 0.000125
9 -0.000033 0.000028 0.000112 -53.630711 60.675739 -58.031055 0.000120
[Rope1_Seg02]
8 139.999863 -0.000179 0.000000 -18.399715 23.286047 1.861237 139.999863
9 139.999863 -0.000179 0.000000 -9.586667 15.499974 -2.913775 139.999863
[Rope1_Seg03]
8 139.999924 0.000060 -0.000060 -38.318192 31.332939 6.743710 139.999924
9 139.999924 0.000060 -0.000060 -35.314919 26.952587 -11.559502 139.999924
[Rope1_Seg04]
8 139.999924 -0.000060 -0.000119 2.373591 -43.663975 21.935123 139.999924
9 139.999924 -0.000060 -0.000119 -13.746908 -6.954635 23.500765 139.999924
[Rope1_Seg05]
8 139.999832 0.000119 -0.000060 -1.290845 -15.829069 9.349118 139.999832
9 139.999832 0.000119 -0.000060 1.001974 -19.873121 14.204376 139.999832
[Rope1_Seg06]
8 139.999954 0.000119 -0.000060 -0.465293 -5.136594 3.562851 139.999954
9 139.999954 0.000119 -0.000060 -0.192813 -5.214642 5.572392 139.999954
[Rope1_Seg07]
8 139.999985 0.000060 0.000000 -0.283272 -2.818256 1.928235 139.999985
9 139.999985 0.000060 0.000000 -0.051232 -2.886592 3.080513 139.999985
[Rope1_Seg09]
8 121.602913 0.000119 -0.000089 -89.793175 -1.359789 0.847147 121.602913
9 121.602913 0.000119 -0.000089 -89.793175 -1.359789 0.847147 121.602913
[L_mid_hand01]
8 103.859421 1.038730 8.195221 109.437721 -41.837845 -13.776228 104.187431
9 103.859421 1.038730 8.195221 109.056190 -40.604698 -13.201404 104.187431
[L_mid_hand02]
8 105.572853 -4.139662 -10.864139 -147.395187 32.186741 -39.191986 106.211075
9 105.572853 -4.139662 -10.864139 -146.713593 31.476528 -37.902313 106.211075
[L_mid_hand03]
8 104.641464 17.579376 -3.913581 -13.988547 12.638442 45.197113 106.179977
9 104.641464 17.579376 -3.913581 -14.267232 12.322316 43.898403 106.179977
[null_rope02_connect]
8 328.732849 0.000179 -0.000119 -146.191483 57.236423 0.866621 328.732849
9 328.732849 0.000179 -0.000119 -144.087006 71.826912 1.040490 328.732849
[Rope2_Seg01]
8 0.000023 0.000108 0.000000 95.409302 0.653853 -129.540283 0.000111
9 0.000015 0.000107 0.000000 97.675446 11.435566 -119.529579 0.000109
[Rope2_Seg02]
8 139.999741 -0.000060 -0.000119 0.954011 2.248295 -12.271267 139.999756
9 139.999741 -0.000060 -0.000119 5.437135 1.117783 -17.257057 139.999756
[Rope2_Seg03]
8 140.000107 0.000030 0.000000 5.864057 4.005659 -25.416231 140.000107
9 140.000107 0.000030 0.000000 11.567249 -0.770828 -23.316154 140.000107
[Rope2_Seg04]
8 139.999802 0.000000 -0.000060 22.623892 1.204400 -41.337990 139.999802
9 139.999802 0.000000 -0.000060 20.408005 -8.203592 -29.918844 139.999802
[Rope2_Seg05]
8 139.999985 -0.000060 0.000119 17.851810 -8.957145 -22.878674 139.999985
9 139.999985 -0.000060 0.000119 5.637689 -5.067258 -8.403371 139.999985
[Rope2_Seg06]
8 139.999893 -0.000030 -0.000119 2.841474 -2.544247 -3.936793 139.999893
9 139.999893 -0.000030 -0.000119 -2.388980 4.766056 2.521585 139.999893
[Rope2_Seg07]
8 139.999893 0.000060 -0.000060 -0.373931 1.213526 0.032370 139.999893
9 139.999893 0.000060 -0.000060 -17.704916 23.537344 21.449360 139.999893
[Rope2_Seg09]
8 121.338966 0.000089 -0.000060 33.793236 -1.359788 -0.847141 121.338966
9 121.338966 0.000089 -0.000060 33.793236 -1.359788 -0.847141 121.338966
[R_mid_hand01]
8 104.680779 11.144459 -10.335981 -30.935734 37.970642 48.479172 105.778534
9 104.680779 11.144459 -10.335981 -33.085686 36.191681 44.913227 105.778534
[R_mid_hand02]
8 104.070427 2.443552 8.231699 65.980988 -52.455704 19.994473 104.424065
9 104.070427 2.443552 8.231699 67.611252 -49.370300 17.897308 104.424065
[R_mid_hand03]
8 106.028137 -11.221827 -5.996406 -172.374313 13.894678 -58.153652 106.788818
9 106.028137 -11.221827 -5.996406 -171.571182 13.427422 -54.737041 106.788818
[spine02]
8 129.756927 0.001550 0.000119 0.360061 -4.044797 -12.915058 129.756927
9 129.756927 0.001550 0.000119 0.360061 -4.044797 -12.915058 129.756927
[spine03]
8 78.614075 0.081518 -4.898998 1.896495 3.831288 16.473045 78.766617
9 78.614075 0.081523 -4.898997 1.896495 3.831288 16.473045 78.766617
[pelvis]
8 169.435242 0.051022 0.000000 -0.060465 -0.180225 14.087930 169.435257
9 169.435242 0.051022 0.000000 -0.060465 -0.180225 14.087931 169.435257
[null_rope03_connect]
8 -1.257226 -2.466202 137.391083 -44.705372 -73.786781 101.997765 137.418976
9 -1.257226 -2.466202 137.391083 -44.151394 -74.442467 102.454010 137.418976
[null_rope04_connect]
8 -1.259640 -2.480268 -137.844437 -44.705372 -73.786781 101.997765 137.872513
9 -1.259640 -2.480268 -137.844437 -44.151394 -74.442467 102.454010 137.872513
[Rope3_Seg01]
8 0.000010 0.000029 -0.000117 -146.175888 28.766613 -108.295380 0.000121
9 0.000010 0.000028 -0.000112 -151.989502 35.742229 -110.014145 0.000116
[Rope3_Seg02]
8 139.999924 -0.000119 0.000060 5.312979 -20.052832 -30.994934 139.999924
9 139.999924 -0.000119 0.000060 1.145211 -9.907086 -14.672812 139.999924
[Rope3_Seg03]
8 139.999924 -0.000119 0.000119 9.747834 -24.489408 -48.821167 139.999924
9 139.999924 -0.000119 0.000119 9.639270 -23.441589 -44.770325 139.999924
[Rope3_Seg04]
8 139.999924 0.000119 0.000000 -2.416904 -7.778739 -14.250798 139.999924
9 139.999924 0.000119 0.000000 -0.376453 -16.825912 -32.917618 139.999924
[Rope3_Seg05]
8 139.999924 -0.000238 0.000060 21.375275 -7.990683 -4.995245 139.999924
9 139.999924 -0.000238 0.000060 28.310226 -11.040921 -5.091237 139.999924
[Rope3_Seg06]
8 139.999893 -0.000119 -0.000060 80.713432 -17.647711 1.688506 139.999893
9 139.999893 -0.000119 -0.000060 58.023296 -18.052574 10.393651 139.999893
[Rope3_Seg07]
8 139.999771 0.000060 -0.000119 21.920904 -2.558186 18.074663 139.999771
9 139.999771 0.000060 -0.000119 18.337606 -4.113540 16.540905 139.999771
[Rope3_Seg08]
8 139.999985 -0.000060 0.000000 5.986435 2.162208 10.983762 139.999985
9 139.999985 -0.000060 0.000000 6.086082 0.683842 10.433241 139.999985
[Rope3_Seg09]
8 90.185997 -0.000179 -0.000060 89.793228 -1.359877 -0.847183 90.185997
9 90.185997 -0.000179 -0.000060 89.793228 -1.359877 -0.847183 90.185997
[R_rear_hand01]
8 103.366196 -6.073594 -10.757982 -168.239929 21.836601 -50.169044 104.101845
9 103.366196 -6.073594 -10.757982 -166.818848 21.039259 -46.280426 104.101845
[R_rear_hand02]
8 100.509819 12.039542 -7.992327 -26.552095 29.320543 47.442066 101.543350
9 100.509819 12.039542 -7.992327 -28.339693 27.613865 43.697414 101.543350
[R_rear_hand03]
8 101.539970 5.215704 5.435467 81.061974 -50.389538 10.772509 101.819031
9 101.539970 5.215704 5.435467 81.685280 -46.725750 9.939899 101.819031
[Rope4_Seg01]
8 0.000010 0.000058 -0.000170 56.313183 18.317190 -76.844604 0.000180
9 0.000009 0.000056 -0.000173 61.042248 29.327019 -79.918816 0.000182
[Rope4_Seg02]
8 139.999985 0.000060 0.000119 19.952480 -44.696995 -46.882267 139.999985
9 139.999985 0.000060 0.000119 8.869850 -37.014565 -25.035069 139.999985
[Rope4_Seg03]
8 139.999924 0.000000 -0.000238 -0.062325 -24.581371 -15.132893 139.999924
9 139.999924 0.000000 -0.000238 5.447053 -29.992762 -12.175972 139.999924
[Rope4_Seg04]
8 139.999985 0.000000 0.000119 -4.427393 -5.010282 -4.675895 139.999985
9 139.999985 0.000000 0.000119 -1.603179 -7.949593 -5.184054 139.999985
[Rope4_Seg05]
8 139.999802 -0.000060 -0.000119 -16.718655 -2.808918 -7.727783 139.999802
9 139.999802 -0.000060 -0.000119 -25.791681 -4.033771 -15.282247 139.999802
[Rope4_Seg06]
8 139.999924 0.000000 0.000060 -63.118996 2.024217 -24.071133 139.999924
9 139.999924 0.000000 0.000060 -66.805176 10.802682 -42.078037 139.999924
[Rope4_Seg07]
8 139.999802 0.000000 0.000000 -29.292046 30.242371 -15.127653 139.999802
9 139.999802 0.000000 0.000000 -12.767443 27.607988 -8.441009 139.999802
[Rope4_Seg08]
8 139.999924 0.000000 0.000119 -5.306085 17.954105 -0.085283 139.999924
9 139.999924 0.000000 0.000119 -3.111844 11.417457 -1.010568 139.999924
[Rope4_Seg09]
8 90.185791 0.000060 0.000060 -135.617828 2.228885 0.850567 90.185791
9 90.185791 0.000060 0.000060 -135.617828 2.228885 0.850567 90.185791
[L_rear_hand01]
8 101.696655 -8.392275 -7.654577 -31.429779 -23.932976 143.406311 102.329041
9 101.696655 -8.392275 -7.654577 -30.719042 -24.879360 141.681366 102.329041
[L_rear_hand02]
8 102.726799 -1.568258 5.773216 82.628304 39.414528 171.441589 102.900848
9 102.726799 -1.568258 5.773216 82.428490 41.230476 171.131027 102.900848
[L_rear_hand03]
8 104.552910 9.721220 -10.420293 -164.198181 -19.188400 -141.332703 105.519653
9 104.552910 9.721220 -10.420293 -164.822937 -19.676041 -139.457672 105.519653
